<?xml version="1.0" encoding="iso-8859-1"?>
<!-- Uploaded to: SVG Repo, www.svgrepo.com, Generator: SVG Repo Mixer Tools -->
<svg height="800px" width="800px" version="1.1" id="Layer_1" xmlns="http://www.w3.org/2000/svg" xmlns:xlink="http://www.w3.org/1999/xlink" 
	 viewBox="0 0 464 464" xml:space="preserve">
<path style="fill:#42210B;" d="M384,220c44,0,80,36,80,80s-36,80-80,80s-80-36-80-80c0-28,14.4-52.8,36-66.4L324.8,204l-44,72.8
	c4.8,7.2,7.2,14.4,7.2,23.2c0,13.6-7.2,25.6-17.6,32.8l6.4,15.2H296v16h-48v-16h12l-4-8.8c-2.4,0.8-5.6,0.8-8,0.8l0,0l-96-4.8
	c-12.8,26.4-40,44.8-72,44.8c-44,0-80-36-80-80s36-80,80-80c20,0,38.4,7.2,52.8,20l52.8-48l-22.4-44H128c-4,0-8-4-8-8v-32
	c0-12.8,11.2-24,24-24h8c10.4,0,19.2,6.4,22.4,16H200c12.8,0,24,11.2,24,24s-11.2,24-24,24h-19.2l20,40H316l-19.2-36
	c-1.6-2.4-1.6-5.6,0-8s4-4,7.2-4h64c13.6,0,24,11.2,24,24s-10.4,24-24,24h-24v-16h24c4,0,8-4,8-8s-4-8-8-8h-50.4l36.8,69.6
	C363.2,222.4,373.6,220,384,220z M448,300c0-35.2-28.8-64-64-64c-8,0-15.2,1.6-22.4,4l19.2,36c0.8,0,2.4,0,3.2,0
	c13.6,0,24,10.4,24,24s-10.4,24-24,24s-24-10.4-24-24c0-6.4,2.4-12,6.4-16.8l-19.2-36c-16,12-27.2,31.2-27.2,52.8
	c0,35.2,28.8,64,64,64S448,335.2,448,300z M392,300c0-4-4-8-8-8s-8,4-8,8s4,8,8,8S392,304,392,300z M268.8,265.6l36.8-61.6h-96.8
	l28,56.8L248,260l0,0C256,260,262.4,262.4,268.8,265.6z M272,300c0-13.6-10.4-24-24-24l0,0c-12.8,0-24,10.4-24,24s10.4,24,24,24l0,0
	c0.8,0,0.8,0,1.6,0l-3.2-8c-8-0.8-14.4-8-14.4-16c0-8.8,7.2-16,16-16s16,7.2,16,16c0,4-1.6,7.2-3.2,9.6l3.2,8
	C268.8,313.6,272,307.2,272,300z M220,261.6l-28-55.2l-48.8,44.8c3.2,4,5.6,8.8,8,12.8L220,261.6z M215.2,277.6l-57.6,2.4
	c0.8,4,1.6,8,2.4,12h48.8C209.6,286.4,212,281.6,215.2,277.6z M157.6,320l57.6,2.4c-3.2-4-4.8-8.8-6.4-14.4H160
	C159.2,312,158.4,316,157.6,320z M208,124c0-4-4-8-8-8h-32c-4,0-8-4-8-8s-4-8-8-8h-8c-4,0-8,4-8,8v24h64C204,132,208,128,208,124z
	 M111.2,292H144c-0.8-4-0.8-7.2-2.4-11.2l-32,1.6L108,284C108.8,286.4,110.4,289.6,111.2,292z M143.2,308h-32.8
	c-0.8,3.2-2.4,6.4-4,9.6l34.4,1.6C142.4,315.2,143.2,312,143.2,308z M133.6,265.6c-0.8-0.8-1.6-2.4-2.4-3.2l-3.2,3.2H133.6z
	 M133.6,334.4L79.2,332C62.4,332,48,317.6,48,300c0-8.8,3.2-16.8,9.6-22.4C63.2,272,71.2,268,80,268l23.2-0.8l17.6-16
	C109.6,241.6,95.2,236,80,236c-35.2,0-64,28.8-64,64s28.8,64,64,64C102.4,364,122.4,352,133.6,334.4z M96,300c0-8.8-7.2-16-16-16
	s-16,7.2-16,16s7.2,16,16,16S96,308.8,96,300z"/>
<g>
	<circle style="fill:#B37D4D;" cx="384" cy="300" r="8"/>
	<path style="fill:#B37D4D;" d="M200,116c4,0,8,4,8,8s-4,8-8,8h-64v-24c0-4,4-8,8-8h8c4,0,8,4,8,8s4,8,8,8H200z"/>
	<circle style="fill:#B37D4D;" cx="80" cy="300" r="16"/>
</g>
</svg>