<?xml version="1.0" encoding="iso-8859-1"?>
<!-- Uploaded to: SVG Repo, www.svgrepo.com, Generator: SVG Repo Mixer Tools -->
<svg fill="#000000" height="800px" width="800px" version="1.1" id="Layer_1" xmlns="http://www.w3.org/2000/svg" xmlns:xlink="http://www.w3.org/1999/xlink" 
	 viewBox="0 0 512 512" xml:space="preserve">
<g>
	<g>
		<path d="M336.216,371.531c-28.927,0.179-52.452,22.799-54.209,51.247h109.105C389.335,394.03,365.374,371.35,336.216,371.531z"/>
	</g>
</g>
<g>
	<g>
		<path d="M491.066,441.312H198.687c5.087-1.187,51.134-11.32,57.64-12.838l-0.074-9.115c-0.197-24.51-20.137-44.266-44.646-44.235
			l-139.319,0.168l-14.24,50.908c0-7.518,0-368.342,0-368.342c-0.01-16.288-13.189-29.485-29.474-29.485c-0.007,0-0.012,0-0.019,0
			C12.263,28.382-0.009,41.599,0,57.893v362.224c0,16.803,6.696,32.915,18.606,44.768c11.911,11.854,28.054,18.471,44.857,18.391
			c110.146-0.52,79.628,0.352,427.602,0.352c11.563-0.001,20.935-9.82,20.935-21.382S502.628,441.312,491.066,441.312z"/>
	</g>
</g>
</svg>