<?xml version="1.0" encoding="iso-8859-1"?>
<!-- Uploaded to: SVG Repo, www.svgrepo.com, Generator: SVG Repo Mixer Tools -->
<svg fill="#000000" height="800px" width="800px" version="1.1" id="Layer_1" xmlns="http://www.w3.org/2000/svg" xmlns:xlink="http://www.w3.org/1999/xlink" 
	 viewBox="0 0 511.997 511.997" xml:space="preserve">
<g>
	<g>
		<path d="M383.311,466.06l-47.928-90.073c-4.556-8.563-15.193-11.809-23.754-7.254c-8.563,4.557-11.811,15.192-7.255,23.754
			l34.139,64.683h-68.781c3.625-0.881,35.875-8.71,41.882-10.169l-24.204-45.488c-9.542-17.932-2.74-40.203,15.192-49.744
			c5.366-2.856,11.12-4.238,16.805-4.306c-0.006-1.143-0.26-57.388-0.269-59.307c0,0-0.088,0-0.256,0
			c-0.417-1.837,2.439,6.924-41.56-125.327l18.196-133.277c1.945-14.242-8.025-27.364-22.267-29.309
			c-14.239-1.943-27.364,8.025-29.309,22.267l-19.015,139.272c-0.538,3.944-0.166,7.959,1.091,11.737l37.169,111.722l-19.05-36.316
			l-51.126-34.541l4.105-111.204c0.53-14.364-10.685-26.439-25.049-26.97c-14.346-0.519-26.439,10.684-26.97,25.049l-4.638,125.643
			c-0.331,8.98,3.993,17.497,11.439,22.527l80.23,54.204l0.6,163.595c0.058,12.682,9.956,24.501,25.293,24.431
			c2.84,0.625-4.952,0,109.786,0c6.166,0,11.88-3.023,15.055-8.309C386.037,478.067,386.207,471.503,383.311,466.06z"/>
	</g>
</g>
<g>
	<g>
		<circle cx="171.107" cy="467.518" r="44.479"/>
	</g>
</g>
</svg>