<?xml version="1.0" encoding="iso-8859-1"?>
<!-- Uploaded to: SVG Repo, www.svgrepo.com, Generator: SVG Repo Mixer Tools -->
<svg fill="#000000" height="800px" width="800px" version="1.1" id="Layer_1" xmlns="http://www.w3.org/2000/svg" xmlns:xlink="http://www.w3.org/1999/xlink" 
	 viewBox="0 0 511.999 511.999" xml:space="preserve">
<g>
	<g>
		<circle cx="210.274" cy="333.609" r="44.475"/>
	</g>
</g>
<g>
	<g>
		<path d="M494.44,323.056H308.884c17.848-4.334,31.801-7.646,49.55-11.955c-0.028-6.098,0-156.771,0-156.818
			c-2.611-11.611-13.384-20.289-25.784-20.293L26.03,133.915c-0.002,0-0.003,0-0.007,0c-14.369,0-26.02,11.647-26.023,26.018
			c-0.003,14.372,11.644,26.025,26.018,26.029l281.24-0.023l-0.349,0.093l-35.335,9.458v137.838
			c0.057,12.677,10.264,24.497,25.598,24.428c2.846,0.628-9.548,0,197.268,0c9.698,0,17.559-7.651,17.559-17.348
			S504.138,323.056,494.44,323.056z"/>
	</g>
</g>
</svg>