<?xml version="1.0" encoding="utf-8"?>
<!-- Uploaded to: SVG Repo, www.svgrepo.com, Generator: SVG Repo Mixer Tools -->
<svg fill="#000000" version="1.1" id="Layer_1" xmlns="http://www.w3.org/2000/svg" xmlns:xlink="http://www.w3.org/1999/xlink" 
	 width="800px" height="800px" viewBox="0 0 256 253" enable-background="new 0 0 256 253" xml:space="preserve">
<path d="M115.328,138.972c0,6.939,5.587,12.526,12.526,12.526s12.526-5.646,12.526-12.526c0-6.939-5.646-12.526-12.526-12.526
	C120.974,126.446,115.328,132.033,115.328,138.972z M78.691,201.838c0-2.117,0.941-3.94,2.411-5.175
	c0.176-0.235,0.353-0.47,0.529-0.647l14.173-13.232l9.115-19.701c2.529-5.057,6.116-8.174,11.526-8.174h23.112
	c5.469,0,8.998,3.176,11.526,8.174l9.115,19.701l14.173,13.173c0.176,0.235,0.353,0.412,0.529,0.647
	c1.47,1.294,2.411,3.117,2.411,5.175c0,3.823-3.058,6.822-6.822,6.822c-2.235,0-4.175-1.117-5.41-2.705
	c-0.059-0.118-0.176-0.176-0.294-0.294l-14.996-13.996c-0.529-0.529-1.059-1.117-1.353-1.882l-4.763-10.233l0.235,18.113
	l20.936,11.468c3.823,2.058,5.587,6.587,4.234,10.703c-1.411,4.175-5.528,6.704-9.821,6.116l-31.345-8.174l-31.345,8.174
	c-4.352,0.588-8.468-1.999-9.821-6.116c-1.353-4.058,0.412-8.645,4.234-10.703l20.936-11.468l0.235-18.113l-4.763,10.233
	c-0.294,0.647-0.823,1.353-1.353,1.882l-14.996,13.996c-0.059,0.118-0.176,0.176-0.294,0.294c-1.235,1.647-3.176,2.705-5.41,2.705
	C81.573,208.601,78.573,205.543,78.691,201.838z M254,106.491v-50h-61.213C187.424,25.542,160.458,2,127.977,2
	C95.495,2,68.53,25.542,63.166,56.491H2v50h24v129H2v16h252v-16h-24v-129H254z M169,46.017c-2.133,6.228-6.959,12.145-13.826,16.109
	c-5.142,2.968-10.658,4.398-15.817,4.398c-1.731,0-3.424-0.161-5.047-0.479c2.136-6.223,6.961-12.14,13.829-16.105
	c5.145-2.97,10.665-4.4,15.826-4.4C165.693,45.54,167.381,45.7,169,46.017z M151.257,28.786c0.818,4.169,0.58,8.787-0.746,13.384
	c-1.831,0.72-3.631,1.568-5.373,2.574c-1.592,0.919-3.096,1.935-4.513,3.029c0.227-1.731,0.347-3.497,0.347-5.289
	c0-2.294-0.19-4.548-0.56-6.736C143.648,32.495,147.389,30.114,151.257,28.786z M127.94,22.456
	c4.322,4.961,7.033,12.099,7.033,20.028c0,7.93-2.711,15.067-7.033,20.028c-4.327-4.961-7.038-12.099-7.038-20.028
	C120.902,34.554,123.614,27.417,127.94,22.456z M104.618,28.786c3.868,1.328,7.609,3.709,10.845,6.961
	c-0.371,2.188-0.561,4.442-0.561,6.736c0,1.792,0.12,3.558,0.347,5.289c-1.417-1.094-2.921-2.109-4.513-3.029
	c-1.742-1.006-3.542-1.853-5.373-2.574C104.039,37.573,103.801,32.956,104.618,28.786z M91.91,45.54c5.161,0,10.681,1.43,15.826,4.4
	c6.867,3.965,11.693,9.882,13.829,16.105c-1.623,0.318-3.315,0.479-5.047,0.479c-5.159,0-10.675-1.43-15.817-4.398
	c-6.867-3.965-11.693-9.882-13.826-16.109C88.495,45.7,90.183,45.54,91.91,45.54z M213,235.491H42v-129h171V235.491z"/>
</svg>