<?xml version="1.0" encoding="iso-8859-1"?>
<!-- Uploaded to: SVG Repo, www.svgrepo.com, Generator: SVG Repo Mixer Tools -->
<svg fill="#000000" height="800px" width="800px" version="1.1" id="Layer_1" xmlns="http://www.w3.org/2000/svg" xmlns:xlink="http://www.w3.org/1999/xlink" 
	 viewBox="0 0 511.999 511.999" xml:space="preserve">
<g>
	<g>
		<path d="M348.88,1.07c-9.071-3.318-19.118,1.344-22.436,10.416l-31.959,87.35c4.996-24.435-13.685-47.189-38.485-47.189
			c-24.826,0-43.471,22.775-38.486,47.184l-31.957-87.346C182.237,2.414,172.191-2.25,163.119,1.07
			c-9.072,3.32-13.736,13.365-10.416,22.437l53.198,145.133v320.616c0,12.561,10.28,22.743,22.841,22.743
			s22.743-10.182,22.743-22.743V307.461h9.027v181.796c0,12.561,10.183,22.743,22.743,22.743c12.561,0,22.841-10.182,22.841-22.743
			V168.639l53.198-145.132C362.617,14.435,357.953,4.39,348.88,1.07z M277.676,144.779h-43.351l-12.828-35.061
			c6.662,12.209,19.615,20.492,34.503,20.492c14.89,0,27.843-8.285,34.505-20.497L277.676,144.779z"/>
	</g>
</g>
</svg>