<?xml version="1.0" encoding="iso-8859-1"?>
<!-- Uploaded to: SVG Repo, www.svgrepo.com, Generator: SVG Repo Mixer Tools -->
<svg fill="#000000" height="800px" width="800px" version="1.1" id="Layer_1" xmlns="http://www.w3.org/2000/svg" xmlns:xlink="http://www.w3.org/1999/xlink" 
	 viewBox="0 0 511.998 511.998" xml:space="preserve">
<g>
	<g>
		<path d="M252.207,424.972c-2.593-21.729-22.311-37.241-44.04-34.648c-3.576,0.426-6.979,1.326-10.166,2.613l15.977,67.268
			l24.168-0.038C248.142,451.866,253.861,438.832,252.207,424.972z"/>
	</g>
</g>
<g>
	<g>
		<path d="M404.635,13.679C397.75,0.99,381.881-3.717,369.194,3.17L226.9,80.381c-9.008,4.887-14.329,14.587-13.61,24.81
			c0.803,11.408,7.056,100.297,8.071,114.722L116.927,282.32c-9.793,5.852-14.659,17.378-12.023,28.478l39.403,165.906
			c5.968-9.837,16.771-16.417,29.117-16.437l20.704-0.032l-33.932-142.872c0,0,86.838-51.848,95.677-57.113
			c-7.717,7.341-27.453,26.115-34.966,33.262c0.933,7.074,7.417,56.21,8.451,64.046c2.96,22.43,21.116,39.161,42.787,41.136
			l12.835-42.851c-0.912,11.122-9.17,113.647-9.697,120.721l-101.834,0.158c-9.741,0.016-17.626,7.924-17.61,17.665
			c0.015,9.733,7.909,17.61,17.637,17.61c0.009,0,0.019,0,0.028,0l118.183-0.184c9.223-0.015,16.877-7.132,17.561-16.33
			c7.335-99.507,9.461-130.339,9.461-130.339s0,0-20.393-154.534l-0.249,0.03c-3.915-11.166-14.672-18.119-26.179-17.468
			c-0.597-8.482-4.694-66.724-5.268-74.872l127.505-69.184C406.815,42.236,411.519,26.369,404.635,13.679z"/>
	</g>
</g>
</svg>