<?xml version="1.0" encoding="iso-8859-1"?>
<!-- Uploaded to: SVG Repo, www.svgrepo.com, Generator: SVG Repo Mixer Tools -->
<svg fill="#000000" height="800px" width="800px" version="1.1" id="Layer_1" xmlns="http://www.w3.org/2000/svg" xmlns:xlink="http://www.w3.org/1999/xlink" 
	 viewBox="0 0 496 496" xml:space="preserve">
<g>
	<g>
		<g>
			<path d="M384,80h16V32H232V0h-64v32H0v48h16v224H0v48h62.024l-32,144h48.392l32.008-144H176v144h48V352h65.584l32.008,144h48.392
				l-32-144H400v-48h-16V80z M184,16h32v16h-32V16z M16,48h368v16H16V48z M368,80v224H32V80H368z M65.584,480H49.976l28.44-128
				h15.608L65.584,480z M208,480h-16V352h16V480z M350.024,480h-15.608l-28.44-128h15.608L350.024,480z M384,336H16v-16h368V336z"/>
			<polygon points="304,272 64,272 64,112 336,112 336,272 320,272 320,288 352,288 352,96 48,96 48,288 304,288 			"/>
			<path d="M268.32,208l45.608,53.2l12.144-10.408L275.68,192h-12.376c0.392-2.656,0.696-5.32,0.696-8c0-30.872-25.128-56-56-56
				c-25.096,0-46.616,16.472-53.576,40H140.16l-66.408,83l12.504,10l61.584-77h55.992l53.608,76.584l13.112-9.168l-29.096-41.56
				l1.856-1.856H268.32z M236.688,192l-4.544,4.544L212.168,168H171.52c6.216-14.296,20.248-24,36.48-24c22.056,0,40,17.944,40,40
				c0,2.672-0.368,5.344-0.928,8H236.688z"/>
			<path d="M487.936,81.488L460.28,40h-24.56l-27.656,41.488C402.792,89.392,400,98.6,400,108.112V112
				c0,14.168,6.208,26.88,16,35.68V464c0,17.648,14.352,32,32,32s32-14.352,32-32V147.68c9.792-8.792,16-21.504,16-35.68v-3.888
				C496,98.6,493.208,89.392,487.936,81.488z M464,464c0,8.824-7.176,16-16,16c-8.824,0-16-7.176-16-16v-16h32V464z M464,432h-32
				V192h32V432z M464,176h-32v-18.8c5.016,1.784,10.384,2.8,16,2.8c5.616,0,10.984-1.024,16-2.8V176z M480,112
				c0,17.648-14.352,32-32,32s-32-14.352-32-32v-3.888c0-6.344,1.856-12.48,5.376-17.752L440,62.424V104h16V62.424l18.624,27.936
				c3.52,5.272,5.376,11.408,5.376,17.752V112z"/>
		</g>
	</g>
</g>
</svg>