<?xml version="1.0" encoding="iso-8859-1"?>
<!-- Uploaded to: SVG Repo, www.svgrepo.com, Generator: SVG Repo Mixer Tools -->
<svg fill="#000000" height="800px" width="800px" version="1.1" id="Layer_1" xmlns="http://www.w3.org/2000/svg" xmlns:xlink="http://www.w3.org/1999/xlink" 
	 viewBox="0 0 512.001 512.001" xml:space="preserve">
<g>
	<g>
		<circle cx="83.325" cy="245.144" r="41.881"/>
	</g>
</g>
<g>
	<g>
		<path d="M496.622,433.401L292.36,346.667l7.137-16.329c2.577-5.898,3.846-12.284,3.717-18.72l-5.115-256.767
			c-0.284-13.935-11.849-25.011-25.743-24.716c-13.934,0.283-25,11.81-24.716,25.743l0.115,5.646
			c-3.941,1.598-7.364,4.537-9.497,8.597c0,0-125.033,246.098-126.002,248.149l0.37,0.175L4.298,448.998
			c-6.576,7.926-5.483,19.684,2.443,26.26s19.684,5.483,26.26-2.443l114.433-137.911c0,0,110.267,51.879,329.461,144.954
			c12.826,5.446,27.644-0.534,33.091-13.365C515.434,453.664,509.45,438.849,496.622,433.401z M192.311,237.723l56.829-108.136
			l2.776,136.316L192.311,237.723z"/>
	</g>
</g>
</svg>