<?xml version="1.0" encoding="iso-8859-1"?>
<!-- Uploaded to: SVG Repo, www.svgrepo.com, Generator: SVG Repo Mixer Tools -->
<!DOCTYPE svg PUBLIC "-//W3C//DTD SVG 1.1//EN" "http://www.w3.org/Graphics/SVG/1.1/DTD/svg11.dtd">
<svg fill="#000000" version="1.1" id="Capa_1" xmlns="http://www.w3.org/2000/svg" xmlns:xlink="http://www.w3.org/1999/xlink" 
	 width="800px" height="800px" viewBox="0 0 203.809 203.81"
	 xml:space="preserve">
<g>
	<path d="M200.26,88.73l-50.479,15.774l-42.654,22.98l-51.977,16.19l-5.468,9.657h62.639c2.782,0,5.054,2.247,5.054,5.049
		c0,2.782-2.259,5.054-5.054,5.054H41.014c-1.796,0-3.453-0.95-4.363-2.503c-0.904-1.553-0.917-3.465-0.034-5.023l10.726-18.938
		c0.636-1.133,1.671-1.948,2.898-2.338l51.773-16.015L60.682,87.321c-0.505-0.381-0.922-0.856-1.261-1.386l-23.976-39.12
		c-1.458-2.387-0.709-5.493,1.666-6.948c2.39-1.446,5.486-0.697,6.942,1.671l23.479,38.316l43.406,32.869
		c0.348,0.256,0.561,0.603,0.816,0.926l34.142-18.393l51.362-16.151c2.637-0.84,5.492,0.652,6.326,3.312
		C204.401,85.062,202.921,87.894,200.26,88.73z M17.351,129.976C7.767,129.976,0,137.745,0,147.329
		c0,9.585,7.767,17.349,17.351,17.349s17.354-7.764,17.354-17.349C34.705,137.745,26.929,129.976,17.351,129.976z M160.9,105.372
		c-20.204,0-36.596,12.577-36.596,28.08c0,15.497,16.392,28.084,36.596,28.084c20.21,0,36.596-12.587,36.596-28.084
		C197.496,117.949,181.11,105.372,160.9,105.372z"/>
</g>
</svg>