<?xml version="1.0" encoding="iso-8859-1"?>
<!-- Uploaded to: SVG Repo, www.svgrepo.com, Generator: SVG Repo Mixer Tools -->
<svg fill="#000000" height="800px" width="800px" version="1.1" id="Layer_1" xmlns="http://www.w3.org/2000/svg" xmlns:xlink="http://www.w3.org/1999/xlink" 
	 viewBox="0 0 511.999 511.999" xml:space="preserve">
<g>
	<g>
		<circle cx="258.625" cy="41.449" r="41.449"/>
	</g>
</g>
<g>
	<g>
		<path d="M478.322,117.843l-172.802-20.44c-4.552-0.538-9.133-0.808-13.717-0.808h-73.685c-8.154,0-16.205,1.835-23.554,5.367
			L72.452,160.657l-21.254-9.471c-12.109-5.396-26.298,0.047-31.694,12.156c-5.396,12.109,0.047,26.299,12.156,31.694
			c103.272,46.11,160.327,70.467,184.208,80.504c8.804,3.7,18.348,5.648,27.897,5.648h20.048v206.808
			c0,13.256,10.747,24.002,24.002,24.002s24.002-10.746,24.002-24.002c0-367.903-0.435-147.32-0.435-353.041
			c174.116,20.936,163.099,19.676,164.759,19.676c9.211,0,17.177-6.885,18.304-16.257
			C495.663,128.253,488.444,119.06,478.322,117.843z M205.433,219.91l-88.676-39.512l88.676-42.39V219.91z"/>
	</g>
</g>
</svg>