<?xml version="1.0" encoding="iso-8859-1"?>
<!-- Uploaded to: SVG Repo, www.svgrepo.com, Generator: SVG Repo Mixer Tools -->
<svg fill="#000000" height="800px" width="800px" version="1.1" id="Layer_1" xmlns="http://www.w3.org/2000/svg" xmlns:xlink="http://www.w3.org/1999/xlink" 
	 viewBox="0 0 512.001 512.001" xml:space="preserve">
<g>
	<g>
		<circle cx="449.545" cy="205.508" r="37.357"/>
	</g>
</g>
<g>
	<g>
		<path d="M505.872,314.323l-111.137-90.532l0.089-14.308c0.114-18.396-14.706-33.98-33.101-34.094c-192.524-1.193-0.947,0-339.41,0
			C9.989,175.39,0,184.801,0,197.124s9.989,22.313,22.313,22.313h194.62l-0.048,79.788h-87.188
			c-12.323,0-22.313,9.989-22.313,22.313s9.989,22.313,22.313,22.313h109.488c12.318,0,22.305-9.982,22.313-22.299
			c0,0-0.066-79.679-0.066-90.835l5.661,30.57l113.981,0.706c-10.797-16.764-7.747-12.028-12.322-19.132l116.115,97.253
			c7.121,5.8,17.597,4.731,23.398-2.391C514.064,330.601,512.994,320.124,505.872,314.323z"/>
	</g>
</g>
</svg>