<?xml version="1.0" encoding="iso-8859-1"?>
<!-- Uploaded to: SVG Repo, www.svgrepo.com, Generator: SVG Repo Mixer Tools -->
<svg fill="#000000" height="800px" width="800px" version="1.1" id="Layer_1" xmlns="http://www.w3.org/2000/svg" xmlns:xlink="http://www.w3.org/1999/xlink" 
	 viewBox="0 0 512.001 512.001" xml:space="preserve">
<g>
	<g>
		<path d="M445.707,301.88l-33.797-27.352c-2.256-1.825-5.567-1.476-7.393,0.779c-1.825,2.257-1.476,5.567,0.78,7.393l26.837,21.72
			l-45.429-6.845c-2.538-0.383-4.906,1.366-5.289,3.904l-3.196,21.212c13.047-2.974,27.223,1.647,35.861,12.985
			c4.858,6.375,7.207,13.876,7.206,21.318c0,10.614-4.78,21.107-13.875,28.036l-8.894,6.776l30.862,4.649
			c2.538,0.383,4.906-1.366,5.289-3.904l12.927-85.802l-0.02-0.003C447.844,304.965,447.208,303.095,445.707,301.88z"/>
	</g>
</g>
<g>
	<g>
		<circle cx="268.778" cy="282.559" r="42.914"/>
	</g>
</g>
<g>
	<g>
		<path d="M484.035,466.826l-98.005-21.85c-2.967-0.661-6.032-0.723-9.022-0.187l-55.579,10l-3.531-23.236l-58.304-36.611
			c9.089,2.687,59.224,17.511,68.403,20.224c5.836,1.795,12.195,0.745,17.165-3.03c0.007-0.004,0.013-0.01,0.019-0.016l52.435-39.95
			c8.355-6.365,9.995-18.314,3.607-26.696c-6.374-8.368-18.328-9.985-26.697-3.607l-44.753,34.097l-19.141-5.659l-51.173-15.13
			l46.58,2.562c-2.152-5.898-6.017-11.079-11.166-14.834c-6.873-5.014-15.465-7.075-23.864-5.724l-28.972,4.658
			c-8.407,1.352-15.924,6.008-20.879,12.934c-4.954,6.924-6.935,15.544-5.5,23.937l18.233,106.645
			c1.43,8.365,6.135,15.815,13.071,20.702c6.938,4.887,15.536,6.81,23.894,5.34l109.718-20.794l93.513,20.849
			c12.347,2.748,24.544-5.037,27.286-17.337C504.118,481.79,496.356,469.573,484.035,466.826z"/>
	</g>
</g>
<g>
	<g>
		<path d="M359.167,10.13C350.997,3.555,340.875,0,330.387,0H15.612c-3.058,0-5.536,2.479-5.536,5.536v162.751
			c0,3.058,2.478,5.536,5.536,5.536c4.973,0,9.817-0.61,14.489-1.742c9.887,33.535,40.176,57.95,76.02,57.95
			c1.02,0,2.03-0.04,3.039-0.079l46.793,55.552v220.289c0,3.14,2.546,5.686,5.686,5.686h47.832c3.14,0,5.686-2.546,5.686-5.686
			V207.362l64.545-64.095c8.851,3.281,18.445,5.094,28.478,5.094c44.239,0,80.103-34.947,80.103-78.056
			C388.285,46.076,376.949,24.439,359.167,10.13z M155.955,251.129l-22.09-26.225c8.067-3.093,15.508-7.498,22.09-12.958V251.129z
			 M215.159,176.15V139c12.333-3.418,23.716-8.99,33.664-16.285c3.225,3.467,6.783,6.63,10.594,9.485L215.159,176.15z"/>
	</g>
</g>
</svg>