<?xml version="1.0" encoding="utf-8"?>
<!-- Uploaded to: SVG Repo, www.svgrepo.com, Generator: SVG Repo Mixer Tools -->
<svg fill="#000000" height="800px" width="800px" version="1.1" id="_x31_" xmlns="http://www.w3.org/2000/svg" xmlns:xlink="http://www.w3.org/1999/xlink" 
	 viewBox="0 0 128 128" xml:space="preserve">
<g>
	<circle cx="64" cy="15.7" r="8.5"/>
	<path d="M23.2,45.8h17.1c0.9,0,1.9-0.4,2.5-1.1l7.6-7.6c0.3-0.3,0.4-0.3,0.8-0.3c0.7,0,1.1,0.4,1.1,1.1V104c0,2.9,2.4,5.3,5.3,5.3
		c2.9,0,5.3-2.4,5.3-5.3V66.8c0-0.7,0.4-1.1,1.1-1.1s1.1,0.4,1.1,1.1v37.3c0,2.9,2.4,5.3,5.3,5.3c2.9,0,5.3-2.4,5.3-5.3V38
		c0-0.7,0.4-1.1,1.1-1.1c0.3,0,0.5,0.1,0.8,0.3l7.6,7.6c0.7,0.7,1.6,1.1,2.5,1.1h17.1c2,0,3.7-1.7,3.7-3.7c0-2.1-1.7-3.9-3.7-3.9
		H89.2c0,0-8.8-8.8-8.9-8.9c-2.1-2.1-4.8-3.1-7.6-3.1H55.3c-2.8,0-5.5,1.1-7.6,3.1c-0.1,0.1-8.9,8.9-8.9,8.9H23.2
		c-2,0-3.7,1.7-3.7,3.7S21.2,45.8,23.2,45.8z"/>
	<path d="M112.9,38.3h-0.5c-0.9,0-1.7,0.8-1.7,1.7v8.8c0,0.9,0.8,1.7,1.7,1.7H112c0,47.7-24.8,69.5-47.7,69.5
		C41.1,120,16,98.3,16,50.6h-0.4c0.9,0,1.7-0.8,1.7-1.7V40c0-0.9-0.8-1.7-1.7-1.7h-0.5c-0.9,0-1.7,0.8-1.7,1.7v8.8
		c0,0.9,0.8,1.7,1.7,1.7h-0.4c0,21.7,5.3,40,15.5,52.9c9.1,11.5,21.2,17.9,34.1,17.9c23.6,0,49.1-22.1,49.1-70.8h-0.4
		c0.9,0,1.7-0.8,1.7-1.7V40C114.7,39.1,113.9,38.3,112.9,38.3z"/>
</g>
</svg>