<?xml version="1.0" encoding="iso-8859-1"?>
<!-- Uploaded to: SVG Repo, www.svgrepo.com, Generator: SVG Repo Mixer Tools -->
<svg fill="#000000" height="800px" width="800px" version="1.1" id="Layer_1" xmlns="http://www.w3.org/2000/svg" xmlns:xlink="http://www.w3.org/1999/xlink" 
	 viewBox="0 0 512 512" xml:space="preserve">
<g>
	<g>
		<path d="M383.775,311.331c-9.777,1.019-19.216,5.555-26.253,13.489c-14.941,16.843-13.399,42.608,3.444,57.549
			c16.843,14.941,42.608,13.399,57.549-3.444c4.683-5.279,7.744-11.433,9.225-17.858L383.775,311.331z"/>
	</g>
</g>
<g>
	<g>
		<path d="M507.39,370.675c0,0-127.452-142.516-129.722-144.529c-8.644-7.668-126.294-111.658-126.294-111.658
			c-10.739-5.99-24.558-4.002-33.107,5.542L6.86,356.071c-9.909,11.063-8.973,28.067,2.091,37.976
			c11.066,9.911,28.068,8.971,37.976-2.091L241.765,175.72l-18.458,33.967l106.564,94.529c10.388,9.215,26.281,8.265,35.496-2.125
			l8.284-9.339l-19.905-42.797c3.508,4.229,126.573,144.888,126.573,144.888c6.675,7.478,18.146,8.125,25.622,1.453
			C513.413,389.623,514.064,378.152,507.39,370.675z"/>
	</g>
</g>
</svg>