<?xml version="1.0" encoding="iso-8859-1"?>
<!-- Uploaded to: SVG Repo, www.svgrepo.com, Generator: SVG Repo Mixer Tools -->
<svg fill="#000000" height="800px" width="800px" version="1.1" id="Layer_1" xmlns="http://www.w3.org/2000/svg" xmlns:xlink="http://www.w3.org/1999/xlink" 
	 viewBox="0 0 511.989 511.989" xml:space="preserve">
<g>
	<g>
		<path d="M503.842,142.895c-11.842-13.331-32.247-14.538-45.577-2.698L185.888,382.699l34.776-46.615l-41.701-89.88
			c-13.503-0.651-77.552-3.738-87.243-4.206c111.09-16.748,47.378-6.153,292.577-49.068c13.173-2.306,21.982-14.853,19.677-28.026
			c-2.307-13.172-14.853-21.982-28.026-19.676l-230.857,40.405c-11.761-8.625-27.648-10.92-41.94-4.69l-35.43,15.447
			c-21.41,9.334-31.199,34.257-21.865,55.666l71.783,164.158c8.297,18.976,25.181,32.83,45.411,37.265
			c20.23,4.435,41.361-1.086,56.835-14.85L501.145,188.47C514.475,176.631,515.682,156.226,503.842,142.895z"/>
	</g>
</g>
<g>
	<g>
		<circle cx="56.029" cy="113.038" r="56.029"/>
	</g>
</g>
</svg>