<?xml version="1.0" encoding="utf-8"?>
<!-- Uploaded to: SVG Repo, www.svgrepo.com, Generator: SVG Repo Mixer Tools -->
<svg fill="#000000" height="800px" width="800px" version="1.2" baseProfile="tiny" id="Layer_1" xmlns="http://www.w3.org/2000/svg" xmlns:xlink="http://www.w3.org/1999/xlink"
	  viewBox="-63 65 128 128" xml:space="preserve">
<path d="M1,102.1c9.7,0,17.5-7.9,17.5-17.6S10.7,66.9,1,66.9s-17.6,7.8-17.6,17.6C-16.6,94.2-8.7,102.1,1,102.1 M18,106.3
	c8,0.3,11.4,6.7,11.4,6.7l25.9,35.6c1.1,1.6,1.7,3.5,1.7,5.6c0,5.5-4.5,10-10,10c-1.3,0-2.5-0.3-3.7-0.7l-15.6-4.4v15.6h-54.2v-15.6
	l-15.6,4.4c-1.1,0.4-2.3,0.7-3.7,0.7c-5.5,0-10-4.5-10-10c0-2.1,0.6-4,1.7-5.6l25.9-35.6c0,0,3.4-6.4,11.4-6.7H18z M0.6,163.8
	L0.6,163.8l20.3-6.7l-0.5-0.1c-14-4.1-8.6-22.6,5.4-18.5l1.9,0.7v-20.9l-27.1,8.9l-27.2-8.9v20.9l1.9-0.7c14-4.1,19.4,14.3,5.4,18.5
	l-0.5,0.1L0.6,163.8z M56.4,188.6c1.4,0,2.5-1.4,2.5-3.3c0-1.9-1.1-3.3-2.5-3.3H-53.2c-1.4,0-2.5,1.5-2.5,3.3c0,1.8,1.1,3.3,2.5,3.3
	H56.4z"/>
</svg>