<?xml version="1.0" encoding="iso-8859-1"?>
<!-- Uploaded to: SVG Repo, www.svgrepo.com, Generator: SVG Repo Mixer Tools -->
<!DOCTYPE svg PUBLIC "-//W3C//DTD SVG 1.1//EN" "http://www.w3.org/Graphics/SVG/1.1/DTD/svg11.dtd">
<svg fill="#000000" height="800px" width="800px" version="1.1" id="Capa_1" xmlns="http://www.w3.org/2000/svg" xmlns:xlink="http://www.w3.org/1999/xlink" 
	 viewBox="0 0 459.73 459.73" xml:space="preserve">
<g id="XMLID_26_">
	<path id="XMLID_86_" d="M258.939,302.626c7.374-2.368,15.305-1.739,22.191,1.7l6.367-96.851l68.557-79.185
		c8.363-9.66,7.312-24.27-2.347-32.632c-9.659-8.363-24.268-7.313-32.632,2.347l-73.642,85.059
		c-3.299,3.811-5.263,8.596-5.594,13.625l-3.443,52.377l-119.344-0.739c-12.799-0.08-23.239,10.232-23.318,23.031l-0.326,52.638
		c-0.079,12.799,10.232,23.238,23.031,23.318l24.782,0.154l-16.813-12.043l66.167,32.526c4.025,1.979,8.644,2.304,12.879,0.943
		l67.776-21.765c9.067-2.912,14.057-12.623,11.146-21.69c-2.912-9.068-12.622-14.059-21.69-11.146l-61.146,19.636l-59.915-29.452
		l57.601,17.326L258.939,302.626z"/>
	<circle id="XMLID_806_" cx="38.732" cy="307.26" r="38.732"/>
	<circle id="XMLID_808_" cx="378.072" cy="265.033" r="81.658"/>
</g>
</svg>