<?xml version="1.0" encoding="iso-8859-1"?>
<!-- Uploaded to: SVG Repo, www.svgrepo.com, Generator: SVG Repo Mixer Tools -->
<svg fill="#000000" height="800px" width="800px" version="1.1" id="Layer_1" xmlns="http://www.w3.org/2000/svg" xmlns:xlink="http://www.w3.org/1999/xlink" 
	 viewBox="0 0 512 512" xml:space="preserve">
<g>
	<g>
		<circle cx="447.604" cy="254.592" r="46.304"/>
	</g>
</g>
<g>
	<g>
		<path d="M364.956,0c-11.71,0-21.204,9.493-21.204,21.204v174.361c-0.971-0.002-78.387,0.15-138.405,0.265
			c-22.583,0.043-43.319,12.53-53.95,32.455L21.284,472.154c-7.041,13.203-2.045,29.614,11.159,36.654
			c13.209,7.042,29.616,2.04,36.655-11.16L177.12,295.069l76.239,199.501c5.345,13.986,21.012,20.975,34.98,15.637
			c13.977-5.341,20.978-21.002,15.638-34.979l-61.729-161.331h101.506v176.899c0,11.711,9.494,21.204,21.204,21.204
			c11.71,0,21.204-9.493,21.204-21.204V21.204C386.16,9.493,376.667,0,364.956,0z"/>
	</g>
</g>
</svg>