<?xml version="1.0" encoding="iso-8859-1"?>
<!-- Uploaded to: SVG Repo, www.svgrepo.com, Generator: SVG Repo Mixer Tools -->
<svg fill="#000000" height="800px" width="800px" version="1.1" id="Layer_1" xmlns="http://www.w3.org/2000/svg" xmlns:xlink="http://www.w3.org/1999/xlink" 
	 viewBox="0 0 512 512" xml:space="preserve">
<g>
	<g>
		<path d="M443.985,433.876c-2.328-14.913-16.304-25.117-31.217-22.79l-97.976,3.907V279.64c1.301-3.07-2.182,13.482,50.565-254.788
			c2.219-11.288-5.132-22.236-16.42-24.457c-11.29-2.218-22.236,5.132-24.457,16.42l-26.236,133.434
			c-7.061-16.344-23.32-27.786-42.256-27.786c-18.956,0-35.231,11.466-42.279,27.838L187.464,16.815
			c-2.22-11.286-13.165-18.638-24.457-16.42c-11.288,2.219-18.638,13.169-16.42,24.457c52.741,268.238,49.26,251.737,50.6,254.865
			v135.187l-97.976-3.818c-14.219-2.178-27.909,7.095-30.927,21.344c-3.128,14.766,6.307,29.273,21.074,32.401l32.446,6.873
			c-3.78,4.738-5.866,10.845-5.366,17.365c1.051,13.699,13.016,23.91,26.656,22.857c118.845-9.119,110.983-8.451,112.895-8.8
			c2.249,0.41,113.474,8.874,114.82,8.874c12.849,0,23.73-9.906,24.729-22.932c0.501-6.531-1.593-12.649-5.386-17.39l32.466-6.846
			C436.712,461.832,446.234,448.284,443.985,433.876z M281.267,236.601H230.68l-6.943-35.315
			c8.304,8.166,19.689,13.208,32.254,13.208c12.545,0,23.912-5.026,32.213-13.168L281.267,236.601z"/>
	</g>
</g>
</svg>